<svg width="28" height="28" viewBox="0 0 28 28" fill="none" xmlns="http://www.w3.org/2000/svg">
<path d="M18.375 4.43844V3.5C18.375 2.80381 18.0984 2.13613 17.6062 1.64384C17.1139 1.15156 16.4462 0.875 15.75 0.875H12.25C11.5538 0.875 10.8861 1.15156 10.3938 1.64384C9.90156 2.13613 9.625 2.80381 9.625 3.5V4.43844C8.16821 4.65077 6.83636 5.37989 5.87253 6.4927C4.90871 7.60552 4.37719 9.02782 4.375 10.5V23.625C4.375 24.0891 4.55937 24.5342 4.88756 24.8624C5.21575 25.1906 5.66087 25.375 6.125 25.375H21.875C22.3391 25.375 22.7842 25.1906 23.1124 24.8624C23.4406 24.5342 23.625 24.0891 23.625 23.625V10.5C23.6228 9.02782 23.0913 7.60552 22.1275 6.4927C21.1636 5.37989 19.8318 4.65077 18.375 4.43844ZM12.25 2.625H15.75C15.9821 2.625 16.2046 2.71719 16.3687 2.88128C16.5328 3.04538 16.625 3.26794 16.625 3.5V4.375H11.375V3.5C11.375 3.26794 11.4672 3.04538 11.6313 2.88128C11.7954 2.71719 12.0179 2.625 12.25 2.625ZM18.375 17.5H9.625V16.625C9.625 16.3929 9.71719 16.1704 9.88128 16.0063C10.0454 15.8422 10.2679 15.75 10.5 15.75H17.5C17.7321 15.75 17.9546 15.8422 18.1187 16.0063C18.2828 16.1704 18.375 16.3929 18.375 16.625V17.5ZM9.625 19.25H14.875V20.125C14.875 20.3571 14.9672 20.5796 15.1313 20.7437C15.2954 20.9078 15.5179 21 15.75 21C15.9821 21 16.2046 20.9078 16.3687 20.7437C16.5328 20.5796 16.625 20.3571 16.625 20.125V19.25H18.375V23.625H9.625V19.25ZM21.875 23.625H20.125V16.625C20.125 15.9288 19.8484 15.2611 19.3562 14.7688C18.8639 14.2766 18.1962 14 17.5 14H10.5C9.80381 14 9.13613 14.2766 8.64384 14.7688C8.15156 15.2611 7.875 15.9288 7.875 16.625V23.625H6.125V10.5C6.125 9.33968 6.58594 8.22688 7.40641 7.40641C8.22688 6.58594 9.33968 6.125 10.5 6.125H17.5C18.6603 6.125 19.7731 6.58594 20.5936 7.40641C21.4141 8.22688 21.875 9.33968 21.875 10.5V23.625ZM16.625 9.625C16.625 9.85706 16.5328 10.0796 16.3687 10.2437C16.2046 10.4078 15.9821 10.5 15.75 10.5H12.25C12.0179 10.5 11.7954 10.4078 11.6313 10.2437C11.4672 10.0796 11.375 9.85706 11.375 9.625C11.375 9.39294 11.4672 9.17038 11.6313 9.00628C11.7954 8.84219 12.0179 8.75 12.25 8.75H15.75C15.9821 8.75 16.2046 8.84219 16.3687 9.00628C16.5328 9.17038 16.625 9.39294 16.625 9.625Z" fill="#848484"/>
</svg>
