<svg width="28" height="28" viewBox="0 0 28 28" fill="none" xmlns="http://www.w3.org/2000/svg">
<path d="M26.8683 4.63142L23.3683 1.13142C23.2041 0.967238 22.9814 0.875 22.7493 0.875C22.5171 0.875 22.2944 0.967238 22.1302 1.13142C21.966 1.29561 21.8738 1.51829 21.8738 1.75049C21.8738 1.98268 21.966 2.20536 22.1302 2.36955L22.2921 2.53033L16.2578 7.05627L12.0775 7.89299C11.9083 7.92689 11.7527 8.00981 11.6302 8.13142L2.51488 17.2446C2.02263 17.7368 1.74609 18.4045 1.74609 19.1006C1.74609 19.7968 2.02263 20.4645 2.51488 20.9567L7.043 25.4849C7.53528 25.9771 8.20293 26.2536 8.8991 26.2536C9.59526 26.2536 10.2629 25.9771 10.7552 25.4849L19.8683 16.3728C19.9902 16.2505 20.0732 16.0949 20.1068 15.9255L20.9435 11.7452L25.4694 5.71096L25.6302 5.87283C25.7115 5.95413 25.808 6.01861 25.9142 6.06261C26.0204 6.10661 26.1343 6.12925 26.2493 6.12925C26.3642 6.12925 26.4781 6.10661 26.5843 6.06261C26.6905 6.01861 26.787 5.95413 26.8683 5.87283C26.9496 5.79153 27.0141 5.69502 27.0581 5.5888C27.1021 5.48258 27.1247 5.36874 27.1247 5.25377C27.1247 5.1388 27.1021 5.02495 27.0581 4.91873C27.0141 4.81251 26.9496 4.716 26.8683 4.63471V4.63142ZM10.4993 11.7375L16.2622 17.5005L11.3743 22.3885L5.61128 16.6255L10.4993 11.7375ZM8.8991 24.5005C8.78429 24.5008 8.67055 24.4783 8.56448 24.4344C8.45841 24.3905 8.3621 24.3259 8.28113 24.2446L3.75519 19.7186C3.59122 19.5545 3.49911 19.3321 3.49911 19.1001C3.49911 18.8681 3.59122 18.6457 3.75519 18.4816L4.37425 17.8625L10.1372 23.6255L9.51488 24.2446C9.35145 24.4078 9.13009 24.4998 8.8991 24.5005ZM19.4243 10.8505C19.3458 10.9549 19.292 11.0756 19.2668 11.2038L18.4432 15.3195L17.4993 16.2635L11.7363 10.5005L12.6802 9.55658L16.796 8.73299C16.9241 8.70778 17.0449 8.65394 17.1493 8.57549L23.5422 3.78049L24.2193 4.45752L19.4243 10.8505Z" fill="#848484"/>
</svg>
