<svg width="28" height="28" viewBox="0 0 28 28" fill="none" xmlns="http://www.w3.org/2000/svg">
<path d="M26.25 22.7492H24.5V10.4992C24.5 10.0351 24.3156 9.58994 23.9874 9.26175C23.6592 8.93356 23.2141 8.74918 22.75 8.74918H15.75V3.49918C15.7502 3.18229 15.6644 2.87128 15.5016 2.59936C15.3389 2.32744 15.1054 2.10481 14.826 1.95524C14.5466 1.80566 14.2318 1.73476 13.9153 1.7501C13.5988 1.76543 13.2924 1.86643 13.0288 2.04231L4.27875 7.87418C4.03871 8.03433 3.84201 8.25135 3.70614 8.50591C3.57027 8.76048 3.49945 9.04469 3.5 9.33325V22.7492H1.75C1.51794 22.7492 1.29538 22.8414 1.13128 23.0055C0.967187 23.1696 0.875 23.3921 0.875 23.6242C0.875 23.8562 0.967187 24.0788 1.13128 24.2429C1.29538 24.407 1.51794 24.4992 1.75 24.4992H26.25C26.4821 24.4992 26.7046 24.407 26.8687 24.2429C27.0328 24.0788 27.125 23.8562 27.125 23.6242C27.125 23.3921 27.0328 23.1696 26.8687 23.0055C26.7046 22.8414 26.4821 22.7492 26.25 22.7492ZM22.75 10.4992V22.7492H15.75V10.4992H22.75ZM5.25 9.33325L14 3.49918V22.7492H5.25V9.33325ZM12.25 12.2492V13.9992C12.25 14.2312 12.1578 14.4538 11.9937 14.6179C11.8296 14.782 11.6071 14.8742 11.375 14.8742C11.1429 14.8742 10.9204 14.782 10.7563 14.6179C10.5922 14.4538 10.5 14.2312 10.5 13.9992V12.2492C10.5 12.0171 10.5922 11.7946 10.7563 11.6305C10.9204 11.4664 11.1429 11.3742 11.375 11.3742C11.6071 11.3742 11.8296 11.4664 11.9937 11.6305C12.1578 11.7946 12.25 12.0171 12.25 12.2492ZM8.75 12.2492V13.9992C8.75 14.2312 8.65781 14.4538 8.49372 14.6179C8.32962 14.782 8.10706 14.8742 7.875 14.8742C7.64294 14.8742 7.42038 14.782 7.25628 14.6179C7.09219 14.4538 7 14.2312 7 13.9992V12.2492C7 12.0171 7.09219 11.7946 7.25628 11.6305C7.42038 11.4664 7.64294 11.3742 7.875 11.3742C8.10706 11.3742 8.32962 11.4664 8.49372 11.6305C8.65781 11.7946 8.75 12.0171 8.75 12.2492ZM8.75 18.3742V20.1242C8.75 20.3562 8.65781 20.5788 8.49372 20.7429C8.32962 20.907 8.10706 20.9992 7.875 20.9992C7.64294 20.9992 7.42038 20.907 7.25628 20.7429C7.09219 20.5788 7 20.3562 7 20.1242V18.3742C7 18.1421 7.09219 17.9196 7.25628 17.7555C7.42038 17.5914 7.64294 17.4992 7.875 17.4992C8.10706 17.4992 8.32962 17.5914 8.49372 17.7555C8.65781 17.9196 8.75 18.1421 8.75 18.3742ZM12.25 18.3742V20.1242C12.25 20.3562 12.1578 20.5788 11.9937 20.7429C11.8296 20.907 11.6071 20.9992 11.375 20.9992C11.1429 20.9992 10.9204 20.907 10.7563 20.7429C10.5922 20.5788 10.5 20.3562 10.5 20.1242V18.3742C10.5 18.1421 10.5922 17.9196 10.7563 17.7555C10.9204 17.5914 11.1429 17.4992 11.375 17.4992C11.6071 17.4992 11.8296 17.5914 11.9937 17.7555C12.1578 17.9196 12.25 18.1421 12.25 18.3742Z" fill="#848484"/>
</svg>
