<svg width="32" height="32" viewBox="0 0 32 32" fill="none" xmlns="http://www.w3.org/2000/svg">
<path d="M9.29243 15.2925L19.2924 5.29249C19.3853 5.19958 19.4956 5.12588 19.617 5.0756C19.7384 5.02532 19.8685 4.99944 19.9999 4.99944C20.1313 4.99944 20.2614 5.02532 20.3828 5.0756C20.5042 5.12588 20.6145 5.19958 20.7074 5.29249C20.8003 5.3854 20.874 5.4957 20.9243 5.6171C20.9746 5.73849 21.0005 5.8686 21.0005 5.99999C21.0005 6.13139 20.9746 6.2615 20.9243 6.38289C20.874 6.50428 20.8003 6.61458 20.7074 6.70749L11.4137 16L20.7074 25.2925C20.8951 25.4801 21.0005 25.7346 21.0005 26C21.0005 26.2654 20.8951 26.5199 20.7074 26.7075C20.5198 26.8951 20.2653 27.0005 19.9999 27.0005C19.7346 27.0005 19.4801 26.8951 19.2924 26.7075L9.29243 16.7075C9.19946 16.6146 9.1257 16.5043 9.07537 16.3829C9.02505 16.2615 8.99915 16.1314 8.99915 16C8.99915 15.8686 9.02505 15.7384 9.07537 15.6171C9.1257 15.4957 9.19946 15.3854 9.29243 15.2925Z" fill="#A3A4A9"/>
</svg>
