<svg width="100" height="24" viewBox="0 0 100 24" fill="none" xmlns="http://www.w3.org/2000/svg">
<path d="M49.9519 23.1694C49.9784 23.08 49.9921 23.019 50.0134 22.9616C50.2522 22.3206 50.4917 21.6803 50.7328 21.0399C51.0429 20.2148 51.3552 19.391 51.6653 18.5659C51.9828 17.7213 52.2975 16.8756 52.615 16.0304C53.0313 14.9219 53.4493 13.8133 53.8667 12.7048C54.024 12.2869 54.1302 11.856 54.1762 11.4098C54.1911 11.2683 54.1945 11.1281 54.1687 10.9872C54.1153 10.6996 53.9477 10.5232 53.6784 10.4457C53.5251 10.4019 53.3677 10.3906 53.2087 10.39C53.1214 10.39 53.0318 10.4036 52.94 10.3705C52.9354 10.2669 52.9825 10.1912 53.0158 10.1278C53.0393 10.113 53.0445 10.1089 53.0508 10.1059C53.0571 10.103 53.064 10.1012 53.0709 10.1012C53.1392 10.0982 53.2081 10.0941 53.2764 10.0941C54.5683 10.0941 55.8608 10.0953 57.1527 10.0959C57.1665 10.0959 57.1803 10.0988 57.1935 10.1012C57.1998 10.1024 57.2061 10.1065 57.2119 10.1101C57.2176 10.1136 57.2222 10.1178 57.2308 10.1243C57.2515 10.2048 57.2073 10.2734 57.1814 10.3439C57.031 10.754 56.8777 11.1636 56.725 11.5731C56.4465 12.3195 56.168 13.0658 55.889 13.8121C55.7408 14.2087 55.5921 14.604 55.444 15.0006C55.4221 15.0592 55.4026 15.1189 55.3808 15.1811C55.4457 15.2048 55.4572 15.1515 55.4755 15.1225C55.6128 14.9106 55.7471 14.697 55.8832 14.4839C56.4046 13.6671 56.9575 12.874 57.5604 12.1188C58.0059 11.5607 58.4796 11.028 59.0194 10.5634C59.3266 10.2995 59.6538 10.0669 60.0196 9.89641C60.3739 9.73128 60.7413 9.67151 61.1255 9.74016C61.5837 9.82184 61.8949 10.0935 62.0786 10.5273C62.1613 10.7232 62.2055 10.931 62.2353 11.1417C62.2882 11.5222 62.2819 11.904 62.2595 12.2863C62.2078 13.1694 62.0137 14.0211 61.7266 14.8526C61.7042 14.9177 61.6813 14.9834 61.6485 15.0757C61.7186 15.0456 61.737 15.0018 61.7605 14.9657C61.9994 14.6023 62.233 14.2353 62.4754 13.8743C62.964 13.1463 63.4813 12.4396 64.0463 11.7726C64.4126 11.3399 64.7996 10.928 65.2291 10.5611C65.526 10.3078 65.8406 10.0811 66.1932 9.91239C66.4986 9.7668 66.815 9.69281 67.1532 9.71826C67.7388 9.76206 68.1224 10.0757 68.3216 10.6368C68.4049 10.8706 68.4457 11.1156 68.46 11.3642C68.5105 12.2413 68.4129 13.1013 68.1982 13.9506C68.061 14.4934 67.868 15.0154 67.6722 15.5368C67.3645 16.3547 67.0516 17.1715 66.7426 17.9889C66.3034 19.1495 65.863 20.3089 65.4289 21.4719C65.2911 21.8418 65.17 22.2183 65.0448 22.5929C65.0092 22.7 64.9793 22.8095 64.9575 22.9202C64.9443 22.9883 64.9414 23.0616 64.9506 23.1303C64.9656 23.2445 65.0316 23.3114 65.143 23.315C65.2515 23.3185 65.3629 23.3073 65.4697 23.2866C65.619 23.257 65.7556 23.1883 65.8888 23.1125C66.2104 22.9291 66.4917 22.6923 66.7576 22.4349C67.1342 22.0709 67.481 21.6785 67.8003 21.2606C68.1655 20.7824 68.5192 20.2941 68.8832 19.8153C68.9819 19.6857 69.0198 19.5508 69.0227 19.3868C69.0365 18.473 69.2128 17.5882 69.4861 16.7217C69.6842 16.0949 69.9253 15.4859 70.2153 14.8976C70.6884 13.9388 71.2844 13.0682 71.9975 12.2822C72.4396 11.7951 72.9139 11.3441 73.4313 10.9428C74.1742 10.3663 74.9844 9.92719 75.8945 9.69992C76.3779 9.57918 76.8677 9.52177 77.3655 9.53834C77.6566 9.54781 77.9397 9.59989 78.2096 9.71471C78.8228 9.97572 79.1483 10.4504 79.1897 11.1316C79.2138 11.5282 79.13 11.9052 78.991 12.2715C78.875 12.5763 78.7212 12.861 78.5368 13.1262C77.9403 13.9832 77.1973 14.6786 76.3303 15.2355C75.639 15.6794 74.904 16.0263 74.1363 16.305C73.507 16.5341 72.8657 16.7187 72.214 16.8661C71.9717 16.9206 71.997 16.8975 71.916 17.1295C71.6513 17.8894 71.413 18.6582 71.2465 19.4478C71.1202 20.045 71.053 20.6487 71.0943 21.2612C71.1116 21.5163 71.1512 21.7673 71.2224 22.0123C71.2804 22.2112 71.374 22.3917 71.4917 22.5592C71.7133 22.8752 72.0262 23.0392 72.3885 23.1137C72.7175 23.1812 73.0454 23.1581 73.3721 23.0948C73.9543 22.9817 74.4837 22.7349 74.9815 22.4094C75.6706 21.9578 76.2688 21.3973 76.8275 20.7883C77.3477 20.2213 77.8168 19.6117 78.2739 18.9909C78.3548 18.8808 78.4042 18.7666 78.4209 18.6263C78.5345 17.6497 78.7987 16.7152 79.1633 15.8079C79.3688 15.2971 79.6002 14.8005 79.8701 14.3223C80.175 13.7825 80.5218 13.2729 80.9094 12.7935C81.4652 12.1058 82.0858 11.485 82.78 10.9452C83.5224 10.3681 84.3326 9.92896 85.2427 9.70169C85.7192 9.58273 86.2021 9.52473 86.6931 9.53834C86.9629 9.54603 87.2265 9.59161 87.4814 9.68334C88.1423 9.92186 88.5299 10.4729 88.5442 11.1938C88.5494 11.4577 88.5132 11.7146 88.4409 11.9685C88.3094 12.4301 88.0923 12.845 87.8156 13.2286C87.3109 13.9281 86.704 14.5188 86.0092 15.0142C85.9317 15.0692 85.8559 15.126 85.7893 15.2089C85.8335 15.2042 85.8794 15.2054 85.9219 15.1929C86.2383 15.0994 86.5564 15.0089 86.8699 14.9059C87.1111 14.8266 87.347 14.7307 87.5853 14.6413C87.9465 14.5064 88.3088 14.3738 88.6677 14.2335C88.8342 14.1684 88.9949 14.0873 89.1591 14.0151C89.456 13.8843 89.7534 13.7553 90.0503 13.6245C90.0945 13.605 90.1358 13.5789 90.1795 13.5588C90.2593 13.5221 90.3127 13.4629 90.3431 13.3783C90.3712 13.2984 90.4051 13.2209 90.435 13.1416C90.7318 12.3491 91.0292 11.5572 91.3249 10.7647C91.5862 10.0651 91.8452 9.36493 92.1058 8.66535C92.1277 8.60735 92.1552 8.55112 92.1793 8.49431C92.3401 8.47655 92.4917 8.46826 92.6398 8.44163C93.4046 8.30491 94.0517 7.94802 94.5605 7.33605C94.6684 7.20643 94.7551 7.06261 94.8274 6.90873C94.8935 6.76846 94.9647 6.63114 95.0347 6.49324C95.0439 6.47489 95.0594 6.4601 95.0766 6.4382C95.1737 6.41571 95.2724 6.40742 95.3855 6.45122C95.3723 6.49679 95.3643 6.53645 95.3505 6.57314C94.9239 7.69293 94.4967 8.81272 94.0695 9.93252C94.0523 9.97809 94.0408 10.026 94.0259 10.0728C93.9983 10.1592 93.9828 10.2527 93.9403 10.3308C93.8129 10.567 93.7319 10.8227 93.6366 11.0718C93.5212 11.3749 93.4092 11.6791 93.2973 11.9839C93.2789 12.0348 93.268 12.0886 93.2553 12.1342C93.2973 12.1786 93.33 12.1567 93.3587 12.1431C93.477 12.0857 93.5958 12.0306 93.7107 11.9661C94.224 11.6797 94.7407 11.398 95.2472 11.0997C95.8495 10.7445 96.4392 10.3663 97.0036 9.95027C97.6082 9.5046 98.1893 9.02994 98.6922 8.46175C99.0086 8.10427 99.2877 7.72075 99.4961 7.28455C99.631 7.00165 99.7194 6.70572 99.7482 6.39263C99.7809 6.0387 99.7085 5.70252 99.561 5.38292C99.4634 5.17045 99.3359 4.9775 99.186 4.80053C98.9816 4.55965 98.7531 4.34599 98.5005 4.15956C98.0911 3.85771 97.6547 3.6044 97.1982 3.38659C96.4794 3.04332 95.7358 2.77047 94.9767 2.53965C93.7555 2.16855 92.5112 1.90459 91.2566 1.68678C90.0359 1.47549 88.8078 1.32693 87.5773 1.19673C86.9555 1.13103 86.333 1.06711 85.7095 1.02213C84.8597 0.960576 84.0082 0.919147 83.1578 0.86588C81.8263 0.782428 80.4931 0.764079 79.1598 0.742773C77.7238 0.71969 76.2872 0.714956 74.8506 0.750467C73.7924 0.776509 72.7342 0.801367 71.6766 0.833919C71.134 0.850491 70.5919 0.88186 70.0493 0.906718C69.5825 0.928025 69.1157 0.946964 68.6489 0.97123C68.2579 0.991353 67.8669 1.0168 67.4759 1.03989C67.1538 1.05942 66.8311 1.07717 66.509 1.09966C65.8372 1.14642 65.1654 1.19436 64.4936 1.24348C63.9866 1.28018 63.479 1.31687 62.972 1.35712C62.5201 1.39322 62.0683 1.43347 61.6164 1.47431C61.0548 1.52461 60.4939 1.57551 59.9329 1.62997C59.338 1.68738 58.7426 1.74774 58.1483 1.80989C57.5127 1.87618 56.8771 1.94365 56.2415 2.01467C55.6065 2.08569 54.9714 2.16027 54.3369 2.23721C53.5113 2.33782 52.6856 2.43844 51.8611 2.54734C50.9958 2.66157 50.1311 2.78349 49.2664 2.9066C48.47 3.02023 47.6736 3.13505 46.8789 3.25757C45.9275 3.40435 44.9767 3.55527 44.027 3.71152C43.0566 3.87132 42.0874 4.03763 41.1188 4.2069C40.482 4.31817 39.8464 4.43714 39.2108 4.5561C37.1213 4.94672 35.0382 5.36812 32.9603 5.81853C31.4071 6.15529 29.858 6.51337 28.3129 6.88979C26.4537 7.34255 24.6025 7.82788 22.7588 8.34338C20.8486 8.87724 18.952 9.45962 17.0641 10.0728C16.684 10.1965 16.3074 10.3302 15.9273 10.4539C15.8199 10.4889 15.7539 10.5486 15.7137 10.6593C15.4214 11.4607 15.124 12.2603 14.8277 13.0605C14.5314 13.8607 14.2311 14.6591 13.9377 15.4604C13.6392 16.2754 13.3182 17.0804 12.9611 17.8699C12.496 18.8979 11.9769 19.8952 11.3453 20.8262C10.9468 21.4139 10.5047 21.9632 9.98969 22.4485C9.43503 22.9711 8.79999 23.3582 8.10237 23.6405C7.33526 23.9512 6.5383 24.1276 5.71838 24.1956C5.13501 24.2442 4.55165 24.256 3.96771 24.2033C3.44463 24.156 2.93419 24.05 2.44211 23.8607C1.91387 23.6571 1.4396 23.3647 1.05375 22.9338C0.79939 22.6503 0.597279 22.3313 0.46694 21.9679C0.400335 21.7821 0.345214 21.5921 0.290667 21.4021C0.205689 21.1056 0.198225 20.8014 0.224063 20.4965C0.300429 19.5957 0.585795 18.7725 1.09796 18.0344C1.54525 17.3899 2.09072 16.843 2.68614 16.3476C3.32865 15.8126 4.01307 15.3379 4.71701 14.8952C5.19186 14.5969 5.6822 14.3235 6.17313 14.0548C7.07114 13.563 7.99155 13.1173 8.91713 12.6823C10.0999 12.1265 11.3109 11.6448 12.5264 11.173C12.7722 11.0778 12.7624 11.1121 12.8703 10.8244C13.1993 9.94672 13.5261 9.06722 13.8551 8.18891C14.1663 7.35676 14.4815 6.52639 14.7892 5.69305C14.8696 5.47525 14.9403 5.25212 14.9977 5.02722C15.0522 4.81415 15.0626 4.59457 15.0367 4.37381C14.9833 3.91275 14.7582 3.56888 14.3747 3.33037C14.0514 3.12913 13.6966 3.02438 13.3274 2.96282C12.9329 2.89654 12.5367 2.86043 12.1371 2.86221C11.9654 2.8628 11.7932 2.86339 11.6215 2.86102C11.5761 2.86043 11.5314 2.84741 11.4837 2.83972C11.4837 2.80598 11.4785 2.78349 11.4849 2.76574C11.5055 2.70655 11.5308 2.64914 11.556 2.58699C11.61 2.58108 11.6571 2.57338 11.7042 2.57102C11.7524 2.56806 11.8007 2.57042 11.8483 2.57042C15.5116 2.57042 19.1748 2.57042 22.8381 2.57102C22.9254 2.57102 23.0149 2.55385 23.1057 2.5941C23.0999 2.69412 23.0534 2.76988 23.0023 2.85392C22.9311 2.85688 22.8633 2.86102 22.7956 2.86102C22.5412 2.86221 22.2869 2.86162 22.0325 2.86102C21.5358 2.86102 21.0444 2.91666 20.5586 3.01905C19.9873 3.14038 19.4527 3.357 18.9698 3.6985C18.5444 3.99916 18.1987 4.37854 17.9357 4.83605C17.7847 5.09883 17.6659 5.37582 17.5614 5.66169C17.2134 6.61576 16.8557 7.56569 16.5032 8.51798C16.3636 8.89499 16.2247 9.272 16.0869 9.64961C16.0634 9.71471 16.045 9.78159 16.0266 9.83959C16.072 9.89523 16.1122 9.87333 16.1501 9.8609C16.4251 9.77094 16.7001 9.67979 16.9746 9.58865C18.7344 9.00567 20.5092 8.473 22.292 7.96933C23.8429 7.53136 25.4006 7.1212 26.963 6.72821C28.5718 6.32279 30.187 5.94696 31.805 5.58297C33.3628 5.23259 34.9245 4.90293 36.4903 4.59338C37.8333 4.32764 39.1775 4.06782 40.5245 3.82753C42.1087 3.54521 43.6957 3.27828 45.2839 3.01964C46.3765 2.84149 47.4726 2.68583 48.5676 2.52367C49.2951 2.41595 50.0237 2.3106 50.7523 2.21117C51.5493 2.10226 52.3468 1.99928 53.1449 1.89926C54.0045 1.79154 54.864 1.68678 55.7247 1.58735C56.3598 1.51396 56.9954 1.45004 57.631 1.38257C58.1437 1.32812 58.6565 1.27367 59.1692 1.22158C59.6136 1.1766 60.0586 1.13458 60.503 1.09256C60.9343 1.05172 61.3649 1.01088 61.7961 0.973005C62.2273 0.935127 62.6591 0.899614 63.0903 0.864695C63.6587 0.81853 64.2272 0.771774 64.7962 0.728569C65.1252 0.703711 65.4548 0.686548 65.7838 0.664649C66.1197 0.64275 66.4556 0.619075 66.7915 0.596584C67.1205 0.575277 67.4495 0.551605 67.779 0.535033C68.5616 0.494786 69.3442 0.457499 70.1269 0.41962C70.6488 0.39417 71.1701 0.365169 71.6921 0.346821C72.3719 0.322555 73.0523 0.306576 73.7321 0.287045C75.3123 0.242064 76.893 0.233185 78.4737 0.239695C79.587 0.243838 80.6998 0.278167 81.8125 0.326108C82.2931 0.346823 82.7743 0.361027 83.2543 0.384701C83.666 0.404824 84.0777 0.433232 84.4894 0.459866C84.8528 0.48354 85.2163 0.506031 85.5797 0.53444C86.0729 0.573503 86.5662 0.613749 87.0582 0.662281C87.633 0.719099 88.2066 0.78006 88.7802 0.848123C89.8321 0.972413 90.8777 1.13754 91.9192 1.33226C92.9482 1.52402 93.9667 1.75781 94.9727 2.05077C95.8271 2.29935 96.6654 2.5941 97.4681 2.98827C98.0848 3.2913 98.6693 3.64642 99.1803 4.1199C99.4169 4.33889 99.627 4.58036 99.801 4.85499C100.213 5.50425 100.311 6.20205 100.111 6.94779C99.9979 7.36919 99.8004 7.74857 99.5581 8.10427C99.2808 8.51147 98.9541 8.87487 98.6044 9.21696C98.0342 9.77449 97.4112 10.2616 96.7613 10.7144C95.8604 11.3423 94.9113 11.8839 93.9398 12.3858C93.6636 12.5284 93.388 12.674 93.1084 12.8095C92.9998 12.8622 92.9384 12.9403 92.8971 13.0528C92.7271 13.5162 92.552 13.9773 92.3791 14.4395C92.0949 15.1988 91.8107 15.9582 91.5271 16.7175C91.2704 17.4047 91.0155 18.0918 90.7582 18.7784C90.4941 19.4851 90.2277 20.1906 89.9636 20.8972C89.8723 21.1417 89.781 21.3861 89.696 21.6329C89.5961 21.9211 89.5312 22.2183 89.5255 22.5248C89.5232 22.6515 89.5278 22.7811 89.5542 22.9042C89.6099 23.1646 89.7758 23.3031 90.0353 23.3179C90.3448 23.3351 90.6336 23.254 90.9104 23.1149C91.31 22.9143 91.6568 22.6379 91.9824 22.3307C92.3424 21.9904 92.6685 21.6169 92.982 21.231C93.8077 20.2142 94.5599 19.1424 95.2466 18.0214C95.4998 17.6083 95.7456 17.191 95.9953 16.7761C96.0344 16.711 96.0665 16.6394 96.128 16.5903C96.2135 16.5968 96.2749 16.6341 96.3312 16.6909C96.3157 16.7246 96.3071 16.7513 96.2927 16.775C96.0935 17.1058 95.896 17.4378 95.6922 17.7657C95.3878 18.254 95.0841 18.7435 94.7706 19.2252C94.1958 20.1071 93.5924 20.9677 92.8999 21.7584C92.5818 22.1218 92.2454 22.4651 91.8721 22.7687C91.5472 23.0332 91.2004 23.2593 90.8122 23.4162C90.2868 23.6281 89.7523 23.6476 89.2143 23.4907C88.6458 23.325 88.2939 22.9237 88.1067 22.3579C88.0286 22.1218 87.9855 21.8785 87.9683 21.6305C87.9178 20.8901 87.9792 20.1598 88.1561 19.4401C88.2485 19.0625 88.3455 18.6861 88.4891 18.325C88.4983 18.3019 88.4965 18.2747 88.5069 18.1996C88.4472 18.2753 88.4156 18.3102 88.3903 18.3493C87.985 18.9737 87.5497 19.575 87.0846 20.1527C86.5128 20.8623 85.8955 21.5258 85.1945 22.1028C84.6926 22.5154 84.1569 22.8723 83.5632 23.1279C82.9138 23.4079 82.2397 23.5558 81.5318 23.489C80.7382 23.4144 80.0418 23.1102 79.4687 22.5319C79.0944 22.1543 78.8268 21.7051 78.6448 21.1997C78.4634 20.696 78.3801 20.1752 78.3703 19.6401C78.3692 19.5715 78.3646 19.5022 78.3617 19.4395C78.2945 19.4158 78.2739 19.459 78.2498 19.4898C78.0947 19.6887 77.9431 19.8893 77.787 20.0876C77.3661 20.6214 76.9125 21.1239 76.4233 21.5921C75.9335 22.0608 75.407 22.4822 74.8236 22.8202C74.1691 23.199 73.4743 23.4529 72.717 23.4984C72.187 23.5304 71.6731 23.4487 71.1816 23.2463C70.523 22.9752 70.0091 22.5213 69.6302 21.9028C69.3391 21.4275 69.176 20.9061 69.0813 20.3575C69.0686 20.2829 69.0738 20.2024 69.017 20.1231C68.9802 20.1616 68.9446 20.1917 68.9176 20.2284C68.6811 20.5504 68.4508 20.8765 68.2102 21.1949C67.8853 21.6252 67.5379 22.0366 67.1595 22.4189C66.8988 22.6817 66.6221 22.9243 66.3189 23.135C66.13 23.2664 65.9279 23.3724 65.7166 23.4576C65.4031 23.5843 65.0787 23.6215 64.7445 23.5665C64.2857 23.4913 63.9682 23.2297 63.7759 22.7995C63.6829 22.5917 63.634 22.3704 63.6053 22.1455C63.568 21.8501 63.5577 21.5536 63.5692 21.2553C63.6036 20.3498 63.7764 19.4715 64.0618 18.6168C64.1847 18.2487 64.3277 17.8882 64.4643 17.5254C64.6406 17.0567 64.8197 16.5897 64.9977 16.1215C65.2377 15.4889 65.4795 14.8568 65.7172 14.2229C66.0714 13.2789 66.4263 12.3354 66.7731 11.3885C66.8868 11.0778 66.9786 10.7582 67.0745 10.4409C67.0963 10.3681 67.1049 10.2876 67.1015 10.2113C67.0952 10.0675 67.0205 9.99348 66.8799 9.98164C66.8259 9.9769 66.7696 9.98164 66.7157 9.98993C66.4957 10.0237 66.2908 10.1018 66.0984 10.2172C65.77 10.4143 65.4754 10.6575 65.1981 10.9233C64.7801 11.3246 64.3977 11.7608 64.0383 12.2171C63.6616 12.6953 63.289 13.1765 62.929 13.6683C62.5276 14.217 62.1561 14.7869 61.8036 15.3705C61.5676 15.7611 61.3327 16.1523 61.1008 16.5459C61.0514 16.63 61.0106 16.7211 60.9762 16.8128C60.5094 18.0611 60.0443 19.3099 59.578 20.5581C59.2743 21.3707 58.9688 22.1821 58.6634 22.9936C58.6416 23.0522 58.6152 23.109 58.5939 23.1593C58.409 23.1907 56.3695 23.1907 56.1927 23.1617C56.149 23.0977 56.191 23.0403 56.2116 22.9847C56.3718 22.555 56.5343 22.1271 56.6957 21.698C56.9638 20.9854 57.2314 20.2722 57.5001 19.5602C57.8561 18.6168 58.2132 17.674 58.5698 16.7312C58.6898 16.4145 58.8115 16.0991 58.9309 15.7824C59.4328 14.4496 59.9369 13.1179 60.433 11.7827C60.5777 11.3932 60.7011 10.9949 60.8321 10.5995C60.8585 10.5196 60.882 10.4368 60.8929 10.3533C60.9021 10.2847 60.8981 10.2125 60.8872 10.1438C60.8751 10.0686 60.824 10.0136 60.7511 10.0006C60.6782 9.98756 60.6007 9.98046 60.5272 9.98993C60.2705 10.0225 60.0385 10.1261 59.8192 10.2651C59.4121 10.5232 59.0596 10.8481 58.7248 11.1955C58.3901 11.5424 58.0817 11.9135 57.7774 12.2881C57.1814 13.022 56.6193 13.7819 56.1048 14.578C55.8005 15.0491 55.514 15.5327 55.2218 16.0121C55.1086 16.1979 55.003 16.3885 54.8887 16.5737C54.8181 16.688 54.7641 16.8087 54.7176 16.9348C54.4259 17.7213 54.1302 18.5067 53.8374 19.2927C53.4659 20.2906 53.095 21.2884 52.7241 22.2863C52.6408 22.5112 52.5576 22.7361 52.4737 22.9604C52.4565 23.0066 52.4387 23.0528 52.4203 23.0983C52.4002 23.1486 52.3641 23.1776 52.3101 23.1794C52.2688 23.1812 52.2274 23.1824 52.1866 23.1824C51.5131 23.1824 50.8396 23.1824 50.1661 23.1824C50.1052 23.1824 50.045 23.1753 49.9519 23.17V23.1694ZM12.5098 11.7152C12.3783 11.7483 12.2899 11.7868 12.2014 11.8235C11.5199 12.1064 10.8366 12.3858 10.1574 12.6746C9.29379 13.0415 8.43539 13.4203 7.59537 13.8423C6.88511 14.1992 6.18289 14.5703 5.49962 14.9793C5.01271 15.2711 4.52696 15.5634 4.05613 15.883C3.40673 16.324 2.79523 16.8152 2.22507 17.3597C1.76745 17.7965 1.38046 18.2877 1.13299 18.8855C1.06581 19.0483 0.99863 19.2093 0.952121 19.3803C0.866569 19.6952 0.832118 20.0183 0.790777 20.3397C0.767235 20.5196 0.770681 20.7096 0.797093 20.8895C0.841879 21.1902 0.93547 21.4796 1.0572 21.7578C1.23289 22.1603 1.5062 22.4822 1.83061 22.7639C2.52939 23.3712 3.32807 23.6979 4.24963 23.6801C4.60045 23.6736 4.94955 23.6482 5.29636 23.5919C6.40911 23.412 7.34847 22.9007 8.10351 22.0336C8.51003 21.5672 8.83961 21.0464 9.12785 20.4977C9.40862 19.9621 9.65093 19.4069 9.86452 18.8394C10.3486 17.5532 10.8314 16.2671 11.3137 14.9805C11.6996 13.9512 12.0831 12.9208 12.4667 11.891C12.4828 11.8472 12.4897 11.7998 12.5098 11.7152ZM89.9934 14.2933C89.878 14.2963 89.8114 14.3347 89.7425 14.3602C89.6455 14.3963 89.5507 14.4365 89.4543 14.4732C89.2614 14.5472 89.0684 14.6206 88.8755 14.694C88.7078 14.7573 88.5413 14.823 88.3725 14.8804C88.0539 14.9887 87.7283 15.0793 87.4142 15.2012C86.9635 15.3758 86.5042 15.5184 86.0322 15.6108C85.609 15.6936 85.191 15.8215 84.7541 15.8132C84.7213 15.8126 84.6875 15.8256 84.6559 15.838C84.5083 15.8949 84.3607 15.9523 84.2143 16.0121C84.0099 16.0949 83.8078 16.1843 83.6017 16.2624C82.9368 16.5139 82.2564 16.7116 81.5645 16.8661C81.3291 16.9188 81.3509 16.8898 81.2665 17.1301C81.0523 17.7426 80.8583 18.3611 80.7015 18.9926C80.5786 19.4874 80.4868 19.987 80.4448 20.4954C80.4115 20.899 80.4253 21.3015 80.4982 21.6998C80.5459 21.959 80.6217 22.2076 80.7578 22.4331C80.922 22.7053 81.1413 22.9107 81.4376 23.0232C81.6259 23.0948 81.8194 23.1386 82.0198 23.1492C82.2547 23.1617 82.4866 23.1398 82.7169 23.0954C83.2715 22.9888 83.7785 22.7598 84.2562 22.4574C84.8092 22.1076 85.3053 21.6826 85.7681 21.2168C86.468 20.5131 87.0852 19.7366 87.6646 18.9264C88.0923 18.328 88.4897 17.7083 88.8812 17.0845C89.0081 16.8821 89.1149 16.6702 89.197 16.4429C89.3722 15.9594 89.5582 15.4794 89.7379 14.9976C89.8212 14.7739 89.901 14.549 89.994 14.2927L89.9934 14.2933ZM81.5031 16.5672C81.5725 16.6157 81.6368 16.5714 81.6994 16.553C82.4815 16.324 83.2365 16.0263 83.9456 15.6114C84.7127 15.1621 85.3851 14.6005 85.93 13.8814C86.333 13.3487 86.6867 12.7876 86.9187 12.1502C87.0875 11.6862 87.1656 11.208 87.1323 10.7138C87.122 10.5599 87.0927 10.4036 87.0462 10.2574C86.9555 9.97394 86.7407 9.82894 86.449 9.82894C86.3101 9.82894 86.1757 9.85557 86.046 9.90529C85.8519 9.97927 85.667 10.0728 85.5005 10.2C85.3076 10.348 85.1227 10.5054 84.9516 10.6812C84.6886 10.9517 84.4469 11.2411 84.2206 11.5441C83.6878 12.2573 83.2181 13.0137 82.7863 13.7961C82.3276 14.6277 81.9302 15.49 81.5582 16.3654C81.5312 16.4287 81.4904 16.4897 81.5036 16.5666L81.5031 16.5672ZM72.1612 16.5743C72.2163 16.6092 72.2685 16.5791 72.3179 16.5619C72.7026 16.4317 73.0913 16.3121 73.4703 16.1642C73.9658 15.9706 74.4384 15.725 74.8879 15.4356C75.6608 14.9378 76.3102 14.3057 76.8338 13.5351C77.1422 13.0806 77.4138 12.6071 77.5929 12.0821C77.7405 11.6501 77.8082 11.205 77.7852 10.7469C77.7761 10.5622 77.7514 10.38 77.6785 10.2089C77.578 9.97335 77.4017 9.84551 77.1519 9.83012C76.9917 9.82006 76.8367 9.85084 76.6874 9.90884C76.4738 9.99111 76.2757 10.1012 76.0926 10.2432C75.7946 10.4741 75.5304 10.741 75.2841 11.028C74.9006 11.4743 74.5624 11.9549 74.2408 12.4491C73.5507 13.5097 72.9685 14.6318 72.4557 15.7925C72.3644 15.9984 72.2777 16.2062 72.1916 16.4145C72.1709 16.4636 72.1342 16.5122 72.1612 16.5743Z" fill="current"/>
<path d="M28.3543 10.1213C28.3405 10.1757 28.3313 10.2308 28.3124 10.2817C28.1235 10.7907 27.934 11.2997 27.7434 11.8075C27.4953 12.4674 27.2461 13.1267 26.9975 13.7867C26.7162 14.5318 26.4348 15.2769 26.154 16.0227C25.9077 16.6761 25.6631 17.3295 25.4168 17.9823C25.1406 18.7144 24.861 19.4454 24.5883 20.1787C24.2834 20.9978 23.9636 21.8116 23.7081 22.6497C23.6811 22.7373 23.6535 22.8255 23.6351 22.9148C23.6225 22.9764 23.6173 23.0415 23.6231 23.1042C23.6357 23.241 23.7023 23.312 23.8355 23.3167C23.9371 23.3203 24.0416 23.3078 24.1416 23.2883C24.2908 23.2587 24.4275 23.1912 24.5613 23.1161C24.8771 22.9373 25.1544 22.7059 25.4162 22.4544C25.8497 22.0383 26.2367 21.579 26.6054 21.102C27.1319 20.4208 27.6429 19.7265 28.1154 19.005C28.4726 18.4599 28.8177 17.9054 29.1513 17.3443C29.4022 16.9223 29.625 16.4832 29.8615 16.0529C29.997 15.8067 30.1377 15.564 30.2721 15.3172C30.4168 15.052 30.5603 14.7863 30.6975 14.517C30.9019 14.1157 31.065 13.6955 31.2246 13.2735C31.5978 12.2839 31.9728 11.2955 32.3477 10.3065C32.3724 10.2414 32.4011 10.1769 32.4252 10.1189C32.6216 10.084 38.5104 10.068 40.8456 10.0953C40.9058 10.0958 40.9667 10.1024 41.031 10.1065C41.0787 10.2663 41.0787 10.3989 40.969 10.5291C40.5579 11.0144 40.1525 11.5051 39.7454 11.9939C38.8905 13.0196 38.0361 14.0459 37.1806 15.071C36.5042 15.8812 35.8255 16.6897 35.1491 17.5C34.4819 18.2996 33.8165 19.1015 33.1493 19.9011C32.4821 20.7013 31.8137 21.5003 31.146 22.2993C31.034 22.4337 30.9209 22.5662 30.8101 22.7018C30.7756 22.7444 30.7469 22.7917 30.7199 22.8302C30.7354 22.887 30.7716 22.8853 30.8049 22.8876C30.8118 22.8876 30.8187 22.8882 30.8256 22.8882C31.7603 22.887 32.6951 22.8941 33.6293 22.8817C34.2304 22.874 34.7931 22.684 35.3317 22.4218C36.1241 22.0353 36.801 21.4831 37.4131 20.8439C37.9264 20.3083 38.3806 19.7236 38.7665 19.0832C38.7739 19.0713 38.7814 19.0595 38.7888 19.0477C38.9025 18.8683 38.941 18.8553 39.1724 18.9204C39.1632 18.9601 39.1575 19.0015 39.1431 19.0394C38.9766 19.4815 38.8089 19.923 38.6407 20.3645C38.5006 20.7333 38.3588 21.102 38.2193 21.4713C38.0292 21.972 37.8409 22.4739 37.6508 22.9746C37.5722 23.1818 37.5716 23.183 37.3528 23.183C34.2741 23.183 31.1948 23.183 28.116 23.183C28.0552 23.183 27.9937 23.1776 27.9156 23.1741C27.9294 23.1303 27.9317 23.0936 27.9501 23.0705C28.0638 22.9285 28.1803 22.7894 28.2969 22.6497C29.4338 21.2855 30.5706 19.9218 31.7081 18.5582C32.4781 17.6349 33.2497 16.7122 34.0191 15.7883C34.8069 14.8431 35.5924 13.8961 36.3796 12.951C37.0238 12.1774 37.6692 11.405 38.3134 10.6309C38.3651 10.5687 38.4311 10.5143 38.4558 10.4214C38.3955 10.3782 38.333 10.3918 38.2744 10.3918C37.6767 10.3906 37.0784 10.3912 36.4807 10.3912C36.3641 10.3912 36.247 10.39 36.1304 10.3924C35.7147 10.4012 35.3139 10.4805 34.9223 10.6315C34.2603 10.8866 33.6896 11.2801 33.1866 11.7862C32.7577 12.2171 32.3655 12.6811 31.9969 13.167C31.7557 13.4848 31.5209 13.808 31.2941 14.1364C31.0311 14.5176 30.8273 14.9366 30.6011 15.3409C30.3714 15.7516 30.1423 16.1624 29.9126 16.5731C29.8851 16.6222 29.8604 16.6725 29.8311 16.7205C29.7576 16.8394 29.683 16.9578 29.6083 17.0762C29.5785 17.1235 29.5474 17.1703 29.5176 17.2182C29.1673 17.7852 28.8228 18.357 28.4651 18.9192C27.9673 19.7005 27.4505 20.4681 26.8867 21.2014C26.5537 21.6347 26.2046 22.0531 25.8193 22.4384C25.5575 22.7 25.2796 22.9421 24.9758 23.151C24.7864 23.2812 24.5825 23.3842 24.3712 23.4688C24.1645 23.5511 23.9486 23.5925 23.7264 23.5931C23.4709 23.5931 23.2177 23.5706 22.972 23.496C22.423 23.3297 22.1003 22.9569 22.0136 22.3709C21.978 22.1312 21.9832 21.8915 22.0022 21.6506C22.0349 21.2334 22.109 20.8226 22.2146 20.419C22.3289 19.9816 22.4569 19.5484 22.5786 19.1134C22.5976 19.0465 22.6148 18.9796 22.6332 18.9127C22.5775 18.8837 22.5683 18.9281 22.5522 18.953C22.3358 19.2809 22.125 19.6123 21.9034 19.936C21.3826 20.6948 20.8136 21.4121 20.1625 22.0572C19.7445 22.4715 19.2863 22.8296 18.7615 23.0924C18.4359 23.2558 18.0943 23.3617 17.7343 23.3812C16.9953 23.4221 16.4326 23.1031 16.033 22.468C15.8125 22.117 15.6977 21.727 15.6311 21.318C15.5593 20.8741 15.5765 20.4285 15.6029 19.9834C15.6322 19.4957 15.6977 19.0116 15.8045 18.5345C15.9199 18.0166 16.0588 17.5059 16.2403 17.0081C16.3632 16.6702 16.4901 16.334 16.6267 16.0014C17.1291 14.7786 17.8135 13.673 18.6576 12.671C19.0997 12.146 19.574 11.6548 20.089 11.2056C20.5369 10.8149 21.0203 10.4782 21.5463 10.2107C22.1675 9.89461 22.8209 9.6845 23.5151 9.62473C23.7069 9.60815 23.8993 9.58981 24.091 9.59632C24.2541 9.60164 24.42 9.6265 24.5791 9.66675C25.0292 9.78157 25.2968 10.0905 25.4099 10.5462C25.4685 10.7806 25.4846 11.0209 25.4691 11.263C25.4587 11.4252 25.4438 11.5873 25.4323 11.7501C25.4294 11.7915 25.4317 11.8341 25.4363 11.8756C25.4403 11.9087 25.4949 11.9282 25.5196 11.9046C25.5489 11.8761 25.5776 11.8448 25.6 11.8105C25.8549 11.4157 26.1081 11.0197 26.3625 10.6244C26.4572 10.477 26.5543 10.3308 26.6478 10.1828C26.6852 10.1243 26.7334 10.0958 26.8017 10.0958C27.2967 10.097 27.7916 10.097 28.286 10.0988C28.3049 10.0988 28.3239 10.1112 28.3572 10.1225L28.3543 10.1213ZM17.6315 21.7589C17.6441 21.9631 17.6516 22.1685 17.6711 22.3721C17.6843 22.5065 17.7257 22.6343 17.8043 22.7468C17.8698 22.8397 17.9531 22.8882 18.0662 22.887C18.2327 22.8858 18.3952 22.8616 18.5519 22.8048C18.812 22.7107 19.0606 22.5929 19.2909 22.4343C19.8094 22.0774 20.2492 21.6317 20.654 21.1482C21.184 20.5149 21.66 19.8396 22.1032 19.14C22.6676 18.2498 23.1672 17.323 23.5932 16.3547C23.8229 15.8333 24.0319 15.3018 24.2535 14.7762C24.5222 14.1394 24.7508 13.489 24.9282 12.8184C25.0258 12.4485 25.1039 12.0756 25.1458 11.6956C25.1797 11.3861 25.2044 11.076 25.1613 10.7646C25.1395 10.6096 25.105 10.4592 25.031 10.3202C24.9414 10.1527 24.8133 10.0319 24.6388 9.96268C24.5217 9.91592 24.4017 9.89165 24.2771 9.8881C24.1042 9.88278 23.9348 9.90704 23.766 9.94374C23.2987 10.0467 22.8939 10.2805 22.5224 10.58C21.97 11.0251 21.5262 11.5731 21.1311 12.1638C20.4048 13.2504 19.7749 14.3945 19.2605 15.6025C18.6266 17.0904 18.1431 18.6292 17.8285 20.2225C17.7286 20.7297 17.6522 21.2393 17.6309 21.7584L17.6315 21.7589Z" fill="current"/>
<path d="M50.0863 18.9056C50.0713 18.9636 50.0645 19.0116 50.0478 19.056C49.7797 19.7686 49.5098 20.4806 49.2405 21.1926C49.0487 21.7004 48.857 22.2082 48.664 22.7154C48.6192 22.8338 48.5693 22.951 48.5257 23.0699C48.4981 23.1451 48.451 23.1853 48.3712 23.1824C48.3161 23.1806 48.2615 23.1824 48.2064 23.1824C45.169 23.1824 42.131 23.1824 39.0936 23.1824C39.0121 23.1824 38.9306 23.1794 38.8301 23.1777C38.8444 23.1303 38.8456 23.093 38.8634 23.0705C38.9771 22.9285 39.0936 22.7888 39.2096 22.6497C40.4315 21.1837 41.6539 19.7183 42.8763 18.2522C43.5567 17.4361 44.2388 16.6211 44.9187 15.8049C45.4911 15.1172 46.0613 14.4277 46.6343 13.7399C47.3009 12.9397 47.9693 12.1407 48.6365 11.3405C48.8512 11.0831 49.066 10.8244 49.2796 10.5658C49.3134 10.5244 49.3416 10.4782 49.376 10.4291C49.3203 10.3764 49.2629 10.3912 49.2118 10.3912C48.7031 10.39 48.1949 10.39 47.6862 10.3906C47.4732 10.3906 47.2602 10.3882 47.0471 10.3918C46.6314 10.3989 46.2301 10.4782 45.8391 10.6291C45.1845 10.8818 44.6172 11.2683 44.1177 11.7684C43.6331 12.2532 43.1967 12.7805 42.7856 13.3304C42.572 13.6162 42.3676 13.9098 42.1597 14.1998C42.1391 14.2282 42.1184 14.256 42.0995 14.2856C42.0541 14.3572 41.9932 14.3939 41.9088 14.3845C41.8566 14.3785 41.8043 14.3738 41.7492 14.3685C41.7509 14.3336 41.7475 14.3111 41.7544 14.2927C42.2706 12.9279 42.7873 11.5631 43.3052 10.1988C43.3173 10.1669 43.3408 10.1391 43.3569 10.113C43.5797 10.0799 49.9479 10.0657 51.7721 10.0941C51.826 10.0947 51.8794 10.1024 51.9414 10.1071C51.9903 10.261 51.9937 10.3948 51.8846 10.5238C51.5418 10.9298 51.2042 11.3399 50.8643 11.7483C49.9376 12.8598 49.0108 13.9713 48.0835 15.0822C47.3044 16.0162 46.5235 16.9484 45.7443 17.8823C44.8308 18.9772 43.9184 20.0734 43.0049 21.1689C42.5841 21.6737 42.162 22.1768 41.7406 22.6817C41.6975 22.7332 41.6436 22.7793 41.6332 22.8604C41.7044 22.9007 41.7733 22.887 41.8393 22.887C42.355 22.8882 42.87 22.8876 43.3856 22.8876C43.7089 22.8876 44.0316 22.8841 44.3548 22.8876C45.0082 22.8953 45.6197 22.719 46.206 22.4408C46.8927 22.1141 47.4933 21.6566 48.0439 21.1269C48.5785 20.6125 49.0533 20.0461 49.465 19.4235C49.554 19.2892 49.643 19.1536 49.7217 19.0134C49.7774 18.9139 49.8503 18.8713 49.9582 18.8867C49.9979 18.892 50.0369 18.8979 50.0886 18.9056H50.0863Z" fill="current"/>
</svg>
