<?xml version="1.0" encoding="UTF-8"?><svg id="_레이어_1" xmlns="http://www.w3.org/2000/svg" viewBox="0 0 1920 1080"><path d="M955.51,724.69c.46-1.51,.7-2.54,1.07-3.51,4.16-10.83,8.33-21.65,12.53-32.47,5.4-13.94,10.84-27.86,16.24-41.8,5.53-14.27,11.01-28.56,16.54-42.84,7.25-18.73,14.53-37.46,21.8-56.19,2.74-7.06,4.59-14.34,5.39-21.88,.26-2.39,.32-4.76-.13-7.14-.93-4.86-3.85-7.84-8.54-9.15-2.67-.74-5.41-.93-8.18-.94-1.52,0-3.08,.23-4.68-.33-.08-1.75,.74-3.03,1.32-4.1,.41-.25,.5-.32,.61-.37,.11-.05,.23-.08,.35-.08,1.19-.05,2.39-.12,3.58-.12,22.5,0,45.01,.02,67.51,.03,.24,0,.48,.05,.71,.09,.11,.02,.22,.09,.32,.15,.1,.06,.18,.13,.33,.24,.36,1.36-.41,2.52-.86,3.71-2.62,6.93-5.29,13.85-7.95,20.77-4.85,12.61-9.7,25.22-14.56,37.83-2.58,6.7-5.17,13.38-7.75,20.08-.38,.99-.72,2-1.1,3.05,1.13,.4,1.33-.5,1.65-.99,2.39-3.58,4.73-7.19,7.1-10.79,9.08-13.8,18.71-27.2,29.21-39.96,7.76-9.43,16.01-18.43,25.41-26.28,5.35-4.46,11.05-8.39,17.42-11.27,6.17-2.79,12.57-3.8,19.26-2.64,7.98,1.38,13.4,5.97,16.6,13.3,1.44,3.31,2.21,6.82,2.73,10.38,.92,6.43,.81,12.88,.42,19.34-.9,14.92-4.28,29.31-9.28,43.36-.39,1.1-.79,2.21-1.36,3.77,1.22-.51,1.54-1.25,1.95-1.86,4.16-6.14,8.23-12.34,12.45-18.44,8.51-12.3,17.52-24.24,27.36-35.51,6.38-7.31,13.12-14.27,20.6-20.47,5.17-4.28,10.65-8.11,16.79-10.96,5.32-2.46,10.83-3.71,16.72-3.28,10.2,.74,16.88,6.04,20.35,15.52,1.45,3.95,2.16,8.09,2.41,12.29,.88,14.82-.82,29.35-4.56,43.7-2.39,9.17-5.75,17.99-9.16,26.8-5.36,13.82-10.81,27.62-16.19,41.43-7.65,19.61-15.32,39.2-22.88,58.85-2.4,6.25-4.51,12.61-6.69,18.94-.62,1.81-1.14,3.66-1.52,5.53-.23,1.15-.28,2.39-.12,3.55,.26,1.93,1.41,3.06,3.35,3.12,1.89,.06,3.83-.13,5.69-.48,2.6-.5,4.98-1.66,7.3-2.94,5.6-3.1,10.5-7.1,15.13-11.45,6.56-6.15,12.6-12.78,18.16-19.84,6.36-8.08,12.52-16.33,18.86-24.42,1.72-2.19,2.38-4.47,2.43-7.24,.24-15.44,3.31-30.39,8.07-45.03,3.45-10.59,7.65-20.88,12.7-30.82,8.24-16.2,18.62-30.91,31.04-44.19,7.7-8.23,15.96-15.85,24.97-22.63,12.94-9.74,27.05-17.16,42.9-21,8.42-2.04,16.95-3.01,25.62-2.73,5.07,.16,10,1.04,14.7,2.98,10.68,4.41,16.35,12.43,17.07,23.94,.42,6.7-1.04,13.07-3.46,19.26-2.02,5.15-4.7,9.96-7.91,14.44-10.39,14.48-23.33,26.23-38.43,35.64-12.04,7.5-24.84,13.36-38.21,18.07-10.96,3.87-22.13,6.99-33.48,9.48-4.22,.92-3.78,.53-5.19,4.45-4.61,12.84-8.76,25.83-11.66,39.17-2.2,10.09-3.37,20.29-2.65,30.64,.3,4.31,.99,8.55,2.23,12.69,1.01,3.36,2.64,6.41,4.69,9.24,3.86,5.34,9.31,8.11,15.62,9.37,5.73,1.14,11.44,.75,17.13-.32,10.14-1.91,19.36-6.08,28.03-11.58,12-7.63,22.42-17.1,32.15-27.39,9.06-9.58,17.23-19.88,25.19-30.37,1.41-1.86,2.27-3.79,2.56-6.16,1.98-16.5,6.58-32.29,12.93-47.62,3.58-8.63,7.61-17.02,12.31-25.1,5.31-9.12,11.35-17.73,18.1-25.83,9.68-11.62,20.49-22.11,32.58-31.23,12.93-9.75,27.04-17.17,42.89-21.01,8.3-2.01,16.71-2.99,25.26-2.76,4.7,.13,9.29,.9,13.73,2.45,11.51,4.03,18.26,13.34,18.51,25.52,.09,4.46-.54,8.8-1.8,13.09-2.29,7.8-6.07,14.81-10.89,21.29-8.79,11.82-19.36,21.8-31.46,30.17-1.35,.93-2.67,1.89-3.83,3.29,.77-.08,1.57-.06,2.31-.27,5.51-1.58,11.05-3.11,16.51-4.85,4.2-1.34,8.31-2.96,12.46-4.47,6.29-2.28,12.6-4.52,18.85-6.89,2.9-1.1,5.7-2.47,8.56-3.69,5.17-2.21,10.35-4.39,15.52-6.6,.77-.33,1.49-.77,2.25-1.11,1.39-.62,2.32-1.62,2.85-3.05,.49-1.35,1.08-2.66,1.6-4,5.17-13.39,10.35-26.77,15.5-40.16,4.55-11.82,9.06-23.65,13.6-35.47,.38-.98,.86-1.93,1.28-2.89,2.8-.3,5.44-.44,8.02-.89,13.32-2.31,24.59-8.34,33.45-18.68,1.88-2.19,3.39-4.62,4.65-7.22,1.15-2.37,2.39-4.69,3.61-7.02,.16-.31,.43-.56,.73-.93,1.69-.38,3.41-.52,5.38,.22-.23,.77-.37,1.44-.61,2.06-7.43,18.92-14.87,37.84-22.31,56.76-.3,.77-.5,1.58-.76,2.37-.48,1.46-.75,3.04-1.49,4.36-2.22,3.99-3.63,8.31-5.29,12.52-2.01,5.12-3.96,10.26-5.91,15.41-.32,.86-.51,1.77-.73,2.54,.73,.75,1.3,.38,1.8,.15,2.06-.97,4.13-1.9,6.13-2.99,8.94-4.84,17.94-9.6,26.76-14.64,10.49-6,20.76-12.39,30.59-19.42,10.53-7.53,20.65-15.55,29.41-25.15,5.51-6.04,10.37-12.52,14-19.89,2.35-4.78,3.89-9.78,4.39-15.07,.57-5.98-.69-11.66-3.26-17.06-1.7-3.59-3.92-6.85-6.53-9.84-3.56-4.07-7.54-7.68-11.94-10.83-7.13-5.1-14.73-9.38-22.68-13.06-12.52-5.8-25.47-10.41-38.69-14.31-21.27-6.27-42.94-10.73-64.79-14.41-21.26-3.57-42.65-6.08-64.08-8.28-10.83-1.11-21.67-2.19-32.53-2.95-14.8-1.04-29.63-1.74-44.44-2.64-23.19-1.41-46.41-1.72-69.63-2.08-25.01-.39-50.03-.47-75.05,.13-18.43,.44-36.86,.86-55.28,1.41-9.45,.28-18.89,.81-28.34,1.23-8.13,.36-16.26,.68-24.39,1.09-6.81,.34-13.62,.77-20.43,1.16-5.61,.33-11.23,.63-16.84,1.01-11.7,.79-23.4,1.6-35.1,2.43-8.83,.62-17.67,1.24-26.5,1.92-7.87,.61-15.74,1.29-23.61,1.98-9.78,.85-19.55,1.71-29.32,2.63-10.36,.97-20.73,1.99-31.08,3.04-11.07,1.12-22.14,2.26-33.21,3.46-11.06,1.2-22.12,2.46-33.17,3.76-14.38,1.7-28.76,3.4-43.12,5.24-15.07,1.93-30.13,3.99-45.19,6.07-13.87,1.92-27.74,3.86-41.58,5.93-16.57,2.48-33.13,5.03-49.67,7.67-16.9,2.7-33.78,5.51-50.65,8.37-11.09,1.88-22.16,3.89-33.23,5.9-36.39,6.6-72.67,13.72-108.86,21.33-27.05,5.69-54.03,11.74-80.94,18.1-32.38,7.65-64.62,15.85-96.73,24.56-33.27,9.02-66.3,18.86-99.18,29.22-6.62,2.09-13.18,4.35-19.8,6.44-1.87,.59-3.02,1.6-3.72,3.47-5.09,13.54-10.27,27.05-15.43,40.57-5.16,13.52-10.39,27.01-15.5,40.55-5.2,13.77-10.79,27.37-17.01,40.71-8.1,17.37-17.14,34.22-28.14,49.95-6.94,9.93-14.64,19.21-23.61,27.41-9.66,8.83-20.72,15.37-32.87,20.14-13.36,5.25-27.24,8.23-41.52,9.38-10.16,.82-20.32,1.02-30.49,.13-9.11-.8-18-2.59-26.57-5.79-9.2-3.44-17.46-8.38-24.18-15.66-4.43-4.79-7.95-10.18-10.22-16.32-1.16-3.14-2.12-6.35-3.07-9.56-1.48-5.01-1.61-10.15-1.16-15.3,1.33-15.22,6.3-29.13,15.22-41.6,7.79-10.89,17.29-20.13,27.66-28.5,11.19-9.04,23.11-17.06,35.37-24.54,8.27-5.04,16.81-9.66,25.36-14.2,15.64-8.31,31.67-15.84,47.79-23.19,20.6-9.39,41.69-17.53,62.86-25.5,4.28-1.61,4.11-1.03,5.99-5.89,5.73-14.83,11.42-29.69,17.15-44.53,5.42-14.06,10.91-28.09,16.27-42.17,1.4-3.68,2.63-7.45,3.63-11.25,.95-3.6,1.13-7.31,.68-11.04-.93-7.79-4.85-13.6-11.53-17.63-5.63-3.4-11.81-5.17-18.24-6.21-6.87-1.12-13.77-1.73-20.73-1.7-2.99,.01-5.99,.02-8.98-.02-.79-.01-1.57-.23-2.4-.36,0-.57-.09-.95,.02-1.25,.36-1,.8-1.97,1.24-3.02,.94-.1,1.76-.23,2.58-.27,.84-.05,1.68-.01,2.51-.01,63.8,0,127.6,0,191.4,.01,1.52,0,3.08-.29,4.66,.39-.1,1.69-.91,2.97-1.8,4.39-1.24,.05-2.42,.12-3.6,.12-4.43,.02-8.86,.01-13.29,0-8.65,0-17.21,.94-25.67,2.67-9.95,2.05-19.26,5.71-27.67,11.48-7.41,5.08-13.43,11.49-18.01,19.22-2.63,4.44-4.7,9.12-6.52,13.95-6.06,16.12-12.29,32.17-18.43,48.26-2.43,6.37-4.85,12.74-7.25,19.12-.41,1.1-.73,2.23-1.05,3.21,.79,.94,1.49,.57,2.15,.36,4.79-1.52,9.58-3.06,14.36-4.6,30.65-9.85,61.56-18.85,92.61-27.36,27.01-7.4,54.14-14.33,81.35-20.97,28.02-6.85,56.15-13.2,84.33-19.35,27.13-5.92,54.33-11.49,81.6-16.72,23.39-4.49,46.8-8.88,70.26-12.94,27.59-4.77,55.23-9.28,82.89-13.65,19.03-3.01,38.12-5.64,57.19-8.38,12.67-1.82,25.36-3.6,38.05-5.28,13.88-1.84,27.77-3.58,41.67-5.27,14.97-1.82,29.94-3.59,44.93-5.27,11.06-1.24,22.13-2.32,33.2-3.46,8.93-.92,17.86-1.84,26.79-2.72,7.74-.76,15.49-1.47,23.23-2.18,7.51-.69,15.01-1.38,22.52-2.02,7.51-.64,15.03-1.24,22.54-1.83,9.9-.78,19.8-1.57,29.71-2.3,5.73-.42,11.47-.71,17.2-1.08,5.85-.37,11.7-.77,17.55-1.15,5.73-.36,11.46-.76,17.2-1.04,13.63-.68,27.26-1.31,40.89-1.95,9.09-.43,18.17-.92,27.26-1.23,11.84-.41,23.69-.68,35.53-1.01,27.52-.76,55.05-.91,82.58-.8,19.39,.07,38.77,.65,58.15,1.46,8.37,.35,16.75,.59,25.11,.99,7.17,.34,14.34,.82,21.51,1.27,6.33,.4,12.66,.78,18.99,1.26,8.59,.66,17.18,1.34,25.75,2.16,10.01,.96,20,1.99,29.99,3.14,18.32,2.1,36.53,4.89,54.67,8.18,17.92,3.24,35.66,7.19,53.18,12.14,14.88,4.2,29.48,9.18,43.46,15.84,10.74,5.12,20.92,11.12,29.82,19.12,4.12,3.7,7.78,7.78,10.81,12.42,7.17,10.97,8.88,22.76,5.4,35.36-1.97,7.12-5.41,13.53-9.63,19.54-4.83,6.88-10.52,13.02-16.61,18.8-9.93,9.42-20.78,17.65-32.1,25.3-15.69,10.61-32.22,19.76-49.14,28.24-4.81,2.41-9.61,4.87-14.48,7.16-1.89,.89-2.96,2.21-3.68,4.11-2.96,7.83-6.01,15.62-9.02,23.43-4.95,12.83-9.9,25.66-14.84,38.49-4.47,11.61-8.91,23.22-13.39,34.82-4.6,11.94-9.24,23.86-13.84,35.8-1.59,4.13-3.18,8.26-4.66,12.43-1.74,4.87-2.87,9.89-2.97,15.07-.04,2.14,.04,4.33,.5,6.41,.97,4.4,3.86,6.74,8.38,6.99,5.39,.29,10.42-1.08,15.24-3.43,6.96-3.39,13-8.06,18.67-13.25,6.27-5.75,11.95-12.06,17.41-18.58,14.38-17.18,27.48-35.29,39.44-54.23,4.41-6.98,8.69-14.03,13.04-21.04,.68-1.1,1.24-2.31,2.31-3.14,1.49,.11,2.56,.74,3.54,1.7-.27,.57-.42,1.02-.67,1.42-3.47,5.59-6.91,11.2-10.46,16.74-5.3,8.25-10.59,16.52-16.05,24.66-10.01,14.9-20.52,29.44-32.58,42.8-5.54,6.14-11.4,11.94-17.9,17.07-5.66,4.47-11.7,8.29-18.46,10.94-9.15,3.58-18.46,3.91-27.83,1.26-9.9-2.8-16.03-9.58-19.29-19.14-1.36-3.99-2.11-8.1-2.41-12.29-.88-12.51,.19-24.85,3.27-37.01,1.61-6.38,3.3-12.74,5.8-18.84,.16-.39,.13-.85,.31-2.12-1.04,1.28-1.59,1.87-2.03,2.53-7.06,10.55-14.64,20.71-22.74,30.47-9.96,11.99-20.71,23.2-32.92,32.95-8.74,6.97-18.07,13-28.41,17.32-11.31,4.73-23.05,7.23-35.38,6.1-13.82-1.26-25.95-6.4-35.93-16.17-6.52-6.38-11.18-13.97-14.35-22.51-3.16-8.51-4.61-17.31-4.78-26.35-.02-1.16-.1-2.33-.15-3.39-1.17-.4-1.53,.33-1.95,.85-2.7,3.36-5.34,6.75-8.06,10.1-7.33,9.02-15.23,17.51-23.75,25.42-8.53,7.92-17.7,15.04-27.86,20.75-11.4,6.4-23.5,10.69-36.69,11.46-9.23,.54-18.18-.84-26.74-4.26-11.47-4.58-20.42-12.25-27.02-22.7-5.07-8.03-7.91-16.84-9.56-26.11-.22-1.26-.13-2.62-1.12-3.96-.64,.65-1.26,1.16-1.73,1.78-4.12,5.44-8.13,10.95-12.32,16.33-5.66,7.27-11.71,14.22-18.3,20.68-4.54,4.44-9.36,8.54-14.64,12.1-3.29,2.22-6.81,4.01-10.49,5.45-5.46,2.14-11.11,2.77-16.93,1.84-7.99-1.27-13.52-5.69-16.87-12.96-1.62-3.51-2.47-7.25-2.97-11.05-.65-4.99-.83-10-.63-15.04,.6-15.3,3.61-30.14,8.58-44.58,2.14-6.22,4.63-12.31,7.01-18.44,3.07-7.92,6.19-15.81,9.29-23.72,4.18-10.69,8.39-21.37,12.53-32.08,6.17-15.95,12.35-31.89,18.39-47.89,1.98-5.25,3.58-10.65,5.25-16.01,.38-1.23,.53-2.59,.47-3.88-.11-2.43-1.41-3.68-3.86-3.88-.94-.08-1.92,0-2.86,.14-3.83,.57-7.4,1.89-10.75,3.84-5.72,3.33-10.85,7.44-15.68,11.93-7.28,6.78-13.94,14.15-20.2,21.86-6.56,8.08-13.05,16.21-19.32,24.52-6.99,9.27-13.46,18.9-19.6,28.76-4.11,6.6-8.2,13.21-12.24,19.86-.86,1.42-1.57,2.96-2.17,4.51-8.13,21.09-16.23,42.19-24.35,63.28-5.29,13.73-10.61,27.44-15.93,41.15-.38,.99-.84,1.95-1.21,2.8-3.22,.53-38.74,.53-41.82,.04-.76-1.08-.03-2.05,.33-2.99,2.79-7.26,5.62-14.49,8.43-21.74,4.67-12.04,9.33-24.09,14.01-36.12,6.2-15.94,12.42-31.87,18.63-47.8,2.09-5.35,4.21-10.68,6.29-16.03,8.74-22.52,17.52-45.02,26.16-67.58,2.52-6.58,4.67-13.31,6.95-19.99,.46-1.35,.87-2.75,1.06-4.16,.16-1.16,.09-2.38-.1-3.54-.21-1.27-1.1-2.2-2.37-2.42-1.27-.22-2.62-.34-3.9-.18-4.47,.55-8.51,2.3-12.33,4.65-7.09,4.36-13.23,9.85-19.06,15.72-5.83,5.86-11.2,12.13-16.5,18.46-10.38,12.4-20.17,25.24-29.13,38.69-5.3,7.96-10.29,16.13-15.38,24.23-1.97,3.14-3.81,6.36-5.8,9.49-1.23,1.93-2.17,3.97-2.98,6.1-5.08,13.29-10.23,26.56-15.33,39.84-6.47,16.86-12.93,33.72-19.39,50.58-1.45,3.8-2.9,7.6-4.36,11.39-.3,.78-.61,1.56-.93,2.33-.35,.85-.98,1.34-1.92,1.37-.72,.03-1.44,.05-2.15,.05-11.73,0-23.46,0-35.19,0-1.06,0-2.11-.12-3.73-.21Zm-652.1-193.53c-2.29,.56-3.83,1.21-5.37,1.83-11.87,4.78-23.77,9.5-35.6,14.38-15.04,6.2-29.99,12.6-44.62,19.73-12.37,6.03-24.6,12.3-36.5,19.21-8.48,4.93-16.94,9.87-25.14,15.27-11.31,7.45-21.96,15.75-31.89,24.95-7.97,7.38-14.71,15.68-19.02,25.78-1.17,2.75-2.34,5.47-3.15,8.36-1.49,5.32-2.09,10.78-2.81,16.21-.41,3.04-.35,6.25,.11,9.29,.78,5.08,2.41,9.97,4.53,14.67,3.06,6.8,7.82,12.24,13.47,17,12.17,10.26,26.08,15.78,42.13,15.48,6.11-.11,12.19-.54,18.23-1.49,19.38-3.04,35.74-11.68,48.89-26.33,7.08-7.88,12.82-16.68,17.84-25.95,4.89-9.05,9.11-18.43,12.83-28.02,8.43-21.73,16.84-43.46,25.24-65.2,6.72-17.39,13.4-34.8,20.08-52.2,.28-.74,.4-1.54,.75-2.97Zm1349.47,43.56c-2.01,.05-3.17,.7-4.37,1.13-1.69,.61-3.34,1.29-5.02,1.91-3.36,1.25-6.72,2.49-10.08,3.73-2.92,1.07-5.82,2.18-8.76,3.15-5.55,1.83-11.22,3.36-16.69,5.42-7.85,2.95-15.85,5.36-24.07,6.92-7.37,1.4-14.65,3.56-22.26,3.42-.57-.01-1.16,.21-1.71,.42-2.57,.96-5.14,1.93-7.69,2.94-3.56,1.4-7.08,2.91-10.67,4.23-11.58,4.25-23.43,7.59-35.48,10.2-4.1,.89-3.72,.4-5.19,4.46-3.73,10.35-7.11,20.8-9.84,31.47-2.14,8.36-3.74,16.8-4.47,25.39-.58,6.82-.34,13.62,.93,20.35,.83,4.38,2.15,8.58,4.52,12.39,2.86,4.6,6.68,8.07,11.84,9.97,3.28,1.21,6.65,1.95,10.14,2.13,4.09,.21,8.13-.16,12.14-.91,9.66-1.8,18.49-5.67,26.81-10.78,9.63-5.91,18.27-13.09,26.33-20.96,12.19-11.89,22.94-25.01,33.03-38.7,7.45-10.11,14.37-20.58,21.19-31.12,2.21-3.42,4.07-7,5.5-10.84,3.05-8.17,6.29-16.28,9.42-24.42,1.45-3.78,2.84-7.58,4.46-11.91Zm-147.87,38.42c1.21,.82,2.33,.07,3.42-.24,13.62-3.87,26.77-8.9,39.12-15.91,13.36-7.59,25.07-17.08,34.56-29.23,7.02-9,13.18-18.48,17.22-29.25,2.94-7.84,4.3-15.92,3.72-24.27-.18-2.6-.69-5.24-1.5-7.71-1.58-4.79-5.32-7.24-10.4-7.24-2.42,0-4.76,.45-7.02,1.29-3.38,1.25-6.6,2.83-9.5,4.98-3.36,2.5-6.58,5.16-9.56,8.13-4.58,4.57-8.79,9.46-12.73,14.58-9.28,12.05-17.46,24.83-24.98,38.05-7.99,14.05-14.91,28.62-21.39,43.41-.47,1.07-1.18,2.1-.95,3.4Zm-162.7,.12c.96,.59,1.87,.08,2.73-.21,6.7-2.2,13.47-4.22,20.07-6.72,8.63-3.27,16.86-7.42,24.69-12.31,13.46-8.41,24.77-19.09,33.89-32.11,5.37-7.68,10.1-15.68,13.22-24.55,2.57-7.3,3.75-14.82,3.35-22.56-.16-3.12-.59-6.2-1.86-9.09-1.75-3.98-4.82-6.14-9.17-6.4-2.79-.17-5.49,.35-8.09,1.33-3.72,1.39-7.17,3.25-10.36,5.65-5.19,3.9-9.79,8.41-14.08,13.26-6.68,7.54-12.57,15.66-18.17,24.01-12.02,17.92-22.16,36.88-31.09,56.49-1.59,3.48-3.1,6.99-4.6,10.51-.36,.83-1,1.65-.53,2.7Z"/><path d="M579.37,504.23c-.24,.92-.4,1.85-.73,2.71-3.29,8.6-6.59,17.2-9.91,25.78-4.32,11.15-8.66,22.29-12.99,33.44-4.9,12.59-9.8,25.18-14.69,37.78-4.29,11.04-8.55,22.08-12.84,33.11-4.81,12.37-9.68,24.72-14.43,37.11-5.31,13.84-10.88,27.59-15.33,41.75-.47,1.48-.95,2.97-1.27,4.48-.22,1.04-.31,2.14-.21,3.2,.22,2.31,1.38,3.51,3.7,3.59,1.77,.06,3.59-.15,5.33-.48,2.6-.5,4.98-1.64,7.31-2.91,5.5-3.02,10.33-6.93,14.89-11.18,7.55-7.03,14.29-14.79,20.71-22.85,9.17-11.51,18.07-23.24,26.3-35.43,6.22-9.21,12.23-18.58,18.04-28.06,4.37-7.13,8.25-14.55,12.37-21.82,2.36-4.16,4.81-8.26,7.15-12.43,2.52-4.48,5.02-8.97,7.41-13.52,3.56-6.78,6.4-13.88,9.18-21.01,6.5-16.72,13.03-33.42,19.56-50.13,.43-1.1,.93-2.19,1.35-3.17,3.42-.59,105.98-.86,146.65-.4,1.05,.01,2.11,.12,3.23,.19,.83,2.7,.83,4.94-1.08,7.14-7.16,8.2-14.22,16.49-21.31,24.75-14.89,17.33-29.77,34.67-44.67,51.99-11.78,13.69-23.6,27.35-35.38,41.04-11.62,13.51-23.21,27.06-34.83,40.57-11.62,13.52-23.26,27.02-34.89,40.52-1.95,2.27-3.92,4.51-5.85,6.8-.6,.72-1.1,1.52-1.57,2.17,.27,.96,.9,.93,1.48,.97,.12,0,.24,.01,.36,.01,16.28-.02,32.56,.1,48.83-.11,10.47-.13,20.27-3.34,29.65-7.77,13.8-6.53,25.59-15.86,36.25-26.66,8.94-9.05,16.85-18.93,23.57-29.75,.13-.2,.26-.4,.39-.6,1.98-3.03,2.65-3.25,6.68-2.15-.16,.67-.26,1.37-.51,2.01-2.9,7.47-5.82,14.93-8.75,22.39-2.44,6.23-4.91,12.46-7.34,18.7-3.31,8.46-6.59,16.94-9.9,25.4-1.37,3.5-1.38,3.52-5.19,3.52-53.62,0-107.25,0-160.87,0-1.06,0-2.13-.09-3.49-.15,.24-.74,.28-1.36,.6-1.75,1.98-2.4,4.01-4.75,6.04-7.11,19.8-23.05,39.6-46.09,59.41-69.13,13.41-15.6,26.85-31.19,40.25-46.8,13.72-15.97,27.4-31.97,41.11-47.94,11.22-13.07,22.46-26.12,33.68-39.2,.9-1.05,2.05-1.97,2.48-3.54-1.05-.73-2.14-.5-3.16-.5-10.41-.02-20.83-.01-31.24-.01-2.03,0-4.07-.02-6.1,.02-7.24,.15-14.22,1.49-21.04,4.04-11.53,4.31-21.47,10.96-30.23,19.51-7.47,7.28-14.3,15.12-20.72,23.33-4.2,5.37-8.29,10.83-12.24,16.38-4.58,6.44-8.13,13.52-12.07,20.35-4,6.94-7.99,13.88-11.99,20.82-.48,.83-.91,1.68-1.42,2.49-1.28,2.01-2.58,4.01-3.88,6.01-.52,.8-1.06,1.59-1.58,2.4-6.1,9.58-12.1,19.24-18.33,28.74-8.67,13.2-17.67,26.17-27.49,38.56-5.8,7.32-11.88,14.39-18.59,20.9-4.56,4.42-9.4,8.51-14.69,12.04-3.3,2.2-6.85,3.94-10.53,5.37-3.6,1.39-7.36,2.09-11.23,2.1-4.45,0-8.86-.38-13.14-1.64-9.56-2.81-15.18-9.11-16.69-19.01-.62-4.05-.53-8.1-.2-12.17,.57-7.05,1.86-13.99,3.7-20.81,1.99-7.39,4.22-14.71,6.34-22.06,.33-1.13,.63-2.26,.95-3.39-.97-.49-1.13,.26-1.41,.68-3.77,5.54-7.44,11.14-11.3,16.61-9.07,12.82-18.98,24.94-30.32,35.84-7.28,7-15.26,13.05-24.4,17.49-5.67,2.76-11.62,4.55-17.89,4.88-12.87,.69-22.67-4.7-29.63-15.43-3.84-5.93-5.84-12.52-7-19.43-1.25-7.5-.95-15.03-.49-22.55,.51-8.24,1.65-16.42,3.51-24.48,2.01-8.75,4.43-17.38,7.59-25.79,2.14-5.71,4.35-11.39,6.73-17.01,8.75-20.66,20.67-39.34,35.37-56.27,7.7-8.87,15.96-17.17,24.93-24.76,7.8-6.6,16.22-12.29,25.38-16.81,10.82-5.34,22.2-8.89,34.29-9.9,3.34-.28,6.69-.59,10.03-.48,2.84,.09,5.73,.51,8.5,1.19,7.84,1.94,12.5,7.16,14.47,14.86,1.02,3.96,1.3,8.02,1.03,12.11-.18,2.74-.44,5.48-.64,8.23-.05,.7-.01,1.42,.07,2.12,.07,.56,1.02,.89,1.45,.49,.51-.48,1.01-1.01,1.4-1.59,4.44-6.67,8.85-13.36,13.28-20.04,1.65-2.49,3.34-4.96,4.97-7.46,.65-.99,1.49-1.47,2.68-1.47,8.62,.02,17.24,.02,25.85,.05,.33,0,.66,.21,1.24,.4Zm-186.75,196.63c.22,3.45,.35,6.92,.69,10.36,.23,2.27,.95,4.43,2.32,6.33,1.14,1.57,2.59,2.39,4.56,2.37,2.9-.02,5.73-.43,8.46-1.39,4.53-1.59,8.86-3.58,12.87-6.26,9.03-6.03,16.69-13.56,23.74-21.73,9.23-10.7,17.52-22.11,25.24-33.93,9.83-15.04,18.53-30.7,25.95-47.06,4-8.81,7.64-17.79,11.5-26.67,4.68-10.76,8.66-21.75,11.75-33.08,1.7-6.25,3.06-12.55,3.79-18.97,.59-5.23,1.02-10.47,.27-15.73-.38-2.62-.98-5.16-2.27-7.51-1.56-2.83-3.79-4.87-6.83-6.04-2.04-.79-4.13-1.2-6.3-1.26-3.01-.09-5.96,.32-8.9,.94-8.14,1.74-15.19,5.69-21.66,10.75-9.62,7.52-17.35,16.78-24.23,26.76-12.65,18.36-23.62,37.69-32.58,58.1-11.04,25.14-19.46,51.14-24.94,78.06-1.74,8.57-3.07,17.18-3.44,25.95Z"/><path d="M957.84,652.65c-.26,.98-.38,1.79-.67,2.54-4.67,12.04-9.37,24.07-14.06,36.1-3.34,8.58-6.68,17.16-10.04,25.73-.78,2-1.65,3.98-2.41,5.99-.48,1.27-1.3,1.95-2.69,1.9-.96-.03-1.91,0-2.87,0-52.9,0-105.81,0-158.71,0-1.42,0-2.84-.05-4.59-.08,.25-.8,.27-1.43,.58-1.81,1.98-2.4,4.01-4.76,6.03-7.11,21.28-24.77,42.57-49.53,63.86-74.3,11.85-13.79,23.73-27.56,35.57-41.35,9.97-11.62,19.9-23.27,29.88-34.89,11.61-13.52,23.25-27.02,34.87-40.54,3.74-4.35,7.48-8.72,11.2-13.09,.59-.7,1.08-1.48,1.68-2.31-.97-.89-1.97-.64-2.86-.64-8.86-.02-17.71-.02-26.57-.01-3.71,0-7.42-.04-11.13,.02-7.24,.12-14.23,1.46-21.04,4.01-11.4,4.27-21.28,10.8-29.98,19.25-8.44,8.19-16.04,17.1-23.2,26.39-3.72,4.83-7.28,9.79-10.9,14.69-.36,.48-.72,.95-1.05,1.45-.79,1.21-1.85,1.83-3.32,1.67-.91-.1-1.82-.18-2.78-.27,.03-.59-.03-.97,.09-1.28,8.99-23.06,17.99-46.12,27.01-69.17,.21-.54,.62-1.01,.9-1.45,3.88-.56,114.79-.8,146.56-.32,.94,.01,1.87,.14,2.95,.22,.85,2.6,.91,4.86-.99,7.04-5.97,6.86-11.85,13.79-17.77,20.69-16.14,18.78-32.28,37.56-48.43,56.33-13.57,15.78-27.17,31.53-40.74,47.31-15.91,18.5-31.8,37.02-47.71,55.53-7.33,8.53-14.68,17.03-22.02,25.56-.75,.87-1.69,1.65-1.87,3.02,1.24,.68,2.44,.45,3.59,.45,8.98,.02,17.95,.01,26.93,.01,5.63,0,11.25-.06,16.88,0,11.38,.13,22.03-2.85,32.24-7.55,11.96-5.52,22.42-13.25,32.01-22.2,9.31-8.69,17.58-18.26,24.75-28.78,1.55-2.27,3.1-4.56,4.47-6.93,.97-1.68,2.24-2.4,4.12-2.14,.69,.09,1.37,.19,2.27,.32Z"/></svg>